<svg width="19" height="19" viewBox="0 0 19 19" fill="none" xmlns="http://www.w3.org/2000/svg">
<path d="M17.4048 0.628038H1.51108C1.07218 0.628038 0.716387 0.989139 0.716387 1.43458V17.5654C0.716387 18.0108 1.07218 18.372 1.51108 18.372H17.4048C17.8437 18.372 18.1995 18.0108 18.1995 17.5654V1.43458C18.1995 0.989139 17.8437 0.628038 17.4048 0.628038Z" stroke="#012D70" stroke-width="1.25" stroke-linecap="round" stroke-linejoin="round"/>
<path d="M9.67565 6.83771C5.66157 5.46297 0.833207 7.94634 0.833207 7.94634L0.640118 17.2922C0.628114 17.8733 1.14318 18.3772 1.7478 18.3759L16.375 18.3457C17.4347 18.3435 18.2513 17.5583 18.2546 16.5384L18.2847 7.27928C18.2847 7.27928 13.6897 8.21245 9.67565 6.83771Z" fill="#72D4FF" stroke="#012D70" stroke-width="1.25"/>
</svg>
