<svg width="19" height="19" viewBox="0 0 19 19" fill="none" xmlns="http://www.w3.org/2000/svg">
<path d="M17.4048 0.628039H1.51105C1.07215 0.628039 0.716357 0.98914 0.716357 1.43458V17.5654C0.716357 18.0109 1.07215 18.372 1.51105 18.372H17.4048C17.8437 18.372 18.1995 18.0109 18.1995 17.5654V1.43458C18.1995 0.98914 17.8437 0.628039 17.4048 0.628039Z" stroke="#012D70" stroke-width="1.25" stroke-linecap="round" stroke-linejoin="round"/>
<path d="M9.67566 6.83773C5.66158 5.46299 0.833207 7.94637 0.833207 7.94637L0.640118 17.2923C0.628114 17.8733 1.14318 18.3772 1.7478 18.376L16.375 18.3457C17.4347 18.3435 18.2513 17.5584 18.2546 16.5384L18.2848 7.27931C18.2848 7.27931 13.6897 8.21248 9.67566 6.83773Z" fill="#72D4FF" stroke="#012D70" stroke-width="1.25"/>
</svg>
