<svg width="19" height="19" viewBox="0 0 19 19" fill="none" xmlns="http://www.w3.org/2000/svg">
<path d="M8 8C8 7.45 8.45 7 9 7C9.55 7 10 7.45 10 8V15H8V8ZM17 11C16.45 11 16 11.45 16 12V17H2V3H7C7.55 3 8 2.55 8 2C8 1.45 7.55 1 7 1H2C0.9 1 0 1.9 0 3V17C0 18.1 0.9 19 2 19H16C17.1 19 18 18.1 18 17V12C18 11.45 17.55 11 17 11ZM18 3H16V1C16 0.45 15.55 0 15 0C14.45 0 14 0.45 14 1V3H12C11.45 3 11 3.45 11 4C11 4.55 11.45 5 12 5H14V7C14 7.55 14.45 8 15 8C15.55 8 16 7.55 16 7V5H18C18.55 5 19 4.55 19 4C19 3.45 18.55 3 18 3ZM13 11C12.45 11 12 11.45 12 12V15H14V12C14 11.45 13.55 11 13 11ZM4 10V15H6V10C6 9.45 5.55 9 5 9C4.45 9 4 9.45 4 10Z" fill="#012D70"/>
</svg>
